<svg width="1025" height="662" viewBox="0 0 1025 662" fill="none" xmlns="http://www.w3.org/2000/svg">
<mask id="mask0_1001_105" style="mask-type:luminance" maskUnits="userSpaceOnUse" x="535" y="0" width="352" height="530">
<path d="M535.407 0.00012207H886.086V529.207H535.407V0.00012207Z" fill="white"/>
</mask>
<g mask="url(#mask0_1001_105)">
<g opacity="0.392197">
<path d="M886.086 141.732L739.524 -0.0010376H535.407V132.79H573.665V38.2566H724.052L847.828 157.956V490.948H627.861V529.206H886.086V141.732Z" fill="white"/>
</g>
</g>
<mask id="mask1_1001_105" style="mask-type:luminance" maskUnits="userSpaceOnUse" x="140" y="0" width="358" height="530">
<path d="M140.096 0.00012207H497.149V529.207H140.096V0.00012207Z" fill="white"/>
</mask>
<g mask="url(#mask1_1001_105)">
<g opacity="0.392197">
<path d="M178.352 490.949V158.159L304.595 38.2542H458.894V132.791H497.151V0.000183105H289.322L140.095 141.734V529.207H398.324V490.949H178.352Z" fill="white"/>
</g>
</g>
<path d="M578.846 623.742H434.428V529.205V490.951V171.047H455.489H491.592H527.698H563.801H578.846V490.951V529.205V623.742ZM614.953 132.79H563.801H527.698H491.592H455.489H398.322V490.951V529.205V662H614.953V529.205V490.951V132.79Z" fill="white"/>
<path d="M318.799 623.741V171.046H164.501L38.2576 290.951V623.741H318.799ZM357.057 661.995H0V274.525L149.227 132.792H357.057V661.995Z" fill="white"/>
<path d="M986.255 623.742V290.952L860.012 171.047H705.714V623.742H986.255ZM1024.51 661.996H667.456V132.793H875.285L1024.51 274.523V661.996Z" fill="white"/>
</svg>
