<svg xmlns="http://www.w3.org/2000/svg" width="180" height="26" viewBox="0 0 180 26" fill="none"><g clip-path="url(#clip0)"><path d="M37.5632 15.9769V25.4978H34.4672V2.3147H50.4897V5.18366H37.5632V13.1079H50.4897V15.9769H37.5632Z" fill="#00001E"></path><path d="M54.2402 3.9997C53.8922 3.66356 53.7183 3.0822 53.7183 2.25562C53.7183 1.42904 53.9084 0.847183 54.2888 0.510063C54.6692 0.173925 55.2289 0.00585938 55.968 0.00585938C56.7071 0.00585938 57.2615 0.173925 57.631 0.510063C57.9996 0.847183 58.1844 1.42904 58.1853 2.25562C58.1853 3.05861 58.0006 3.63457 57.631 3.98348C57.2615 4.3324 56.7071 4.50636 55.968 4.50538C55.1631 4.50538 54.5871 4.33682 54.2402 3.9997ZM54.305 6.88488H57.5322V25.4963H54.305V6.88488Z" fill="#00001E"></path><path d="M63.5634 24.3064C62.0626 23.1879 61.1824 21.5524 60.923 19.3999H64.3477C64.5443 20.7258 65.1419 21.7038 66.1405 22.3338C67.139 22.9638 68.3676 23.2793 69.8262 23.2803C71.5442 23.2803 72.7615 22.9702 73.478 22.35C74.1945 21.7298 74.5532 20.9853 74.5542 20.1164C74.5624 19.7853 74.4953 19.4567 74.3581 19.1552C74.2262 18.8825 74.0223 18.6511 73.7684 18.4859C73.1279 18.079 72.4135 17.8025 71.6661 17.6721C70.8071 17.5011 69.891 17.3487 68.918 17.2151C68.0708 17.0853 67.2231 16.9276 66.3749 16.7418C65.5703 16.5735 64.7902 16.3045 64.0529 15.9413C63.3763 15.5902 62.7989 15.0746 62.3737 14.4419C61.9491 13.8129 61.7368 12.9976 61.7368 11.9961C61.7346 11.4951 61.8006 10.9962 61.9329 10.513C62.0631 10.0441 62.2618 9.59698 62.5226 9.18609C63.0661 8.31725 63.8868 7.62925 64.9846 7.12209C66.0825 6.61494 67.4683 6.3594 69.1421 6.35547C71.6631 6.35547 73.592 6.88818 74.9287 7.95359C76.2653 9.01901 77.0516 10.4535 77.2875 12.257H74.0588C73.9075 11.1484 73.4185 10.3174 72.5919 9.76401C71.7653 9.21066 70.6026 8.9335 69.1038 8.93252C67.5165 8.93252 66.4132 9.22738 65.794 9.81709C65.1748 10.4068 64.8652 11.0805 64.8652 11.8383C64.8593 12.1586 64.9258 12.4761 65.0598 12.7671C65.201 13.0519 65.4151 13.294 65.6805 13.4689C66.3262 13.8554 67.0397 14.1151 67.7828 14.234C68.6408 14.3982 69.5593 14.5559 70.5382 14.7073C71.3864 14.838 72.2342 14.9958 73.0814 15.1805C73.8832 15.3493 74.6608 15.6177 75.396 15.9796C76.0665 16.3259 76.6385 16.8361 77.059 17.4627C77.4718 18.0819 77.6782 18.9026 77.6782 19.9248C77.6816 20.4684 77.6111 21.01 77.4688 21.5347C77.3269 22.0464 77.113 22.5354 76.8334 22.9869C76.2683 23.9 75.4044 24.6278 74.2416 25.1703C73.0789 25.7128 71.5845 25.9846 69.7583 25.9856C67.1282 25.9856 65.0642 25.4258 63.5664 24.3064" fill="#00001E"></path><path d="M83.0617 23.475C81.4312 21.8041 80.6159 19.4782 80.6159 16.4972V16.0741C80.6073 15.109 80.7112 14.1461 80.9255 13.2051C81.122 12.3615 81.4346 11.5493 81.8543 10.7917C82.6212 9.39535 83.7765 8.25132 85.1803 7.49814C86.6467 6.72576 88.2835 6.33391 89.9407 6.35851C92.3979 6.35851 94.4304 6.9782 96.0383 8.21758C97.6463 9.45697 98.5918 11.3696 98.8749 13.9555V14.0248H95.5813V13.9585C95.3209 12.3073 94.7017 11.0846 93.7237 10.2904C92.7458 9.49628 91.4956 9.0997 89.9732 9.10068C88.1912 9.10068 86.7297 9.70416 85.5887 10.9111C84.4476 12.1181 83.877 13.8381 83.877 16.0711V16.4294C83.877 18.5386 84.4146 20.1853 85.4899 21.3697C86.5651 22.554 88.0487 23.1437 89.9407 23.1388C91.5487 23.1388 92.8264 22.7314 93.7739 21.9167C94.7213 21.1019 95.3351 19.89 95.6152 18.2811V18.2486H98.9088V18.3135C98.6257 20.9436 97.6748 22.8784 96.056 24.1178C94.4373 25.3571 92.3885 25.9763 89.9098 25.9754C86.9759 25.9754 84.6938 25.1399 83.0632 23.4691" fill="#00001E"></path><path d="M104.451 23.475C102.821 21.8041 102.006 19.4782 102.006 16.4972V16.0741C101.997 15.109 102.101 14.1462 102.315 13.2051C102.51 12.3659 102.811 11.5549 103.211 10.7917C103.978 9.39476 105.133 8.25052 106.537 7.49817C107.95 6.73744 109.547 6.35707 111.33 6.35707C112.198 6.35275 113.062 6.45173 113.906 6.65193C114.693 6.84244 115.45 7.14008 116.156 7.5365C117.561 8.28985 118.712 9.44122 119.465 10.8463C120.259 12.293 120.655 14.0376 120.655 16.08V16.5031C120.662 17.4352 120.563 18.365 120.36 19.2748C120.177 20.09 119.892 20.879 119.513 21.6233C118.766 22.9998 117.632 24.1274 116.252 24.8667C114.862 25.6166 113.221 25.9916 111.329 25.9916C108.372 25.9916 106.079 25.1562 104.45 23.4853L104.451 23.475ZM115.828 21.383C116.893 20.1908 117.425 18.5406 117.425 16.4323V16.0741C117.425 13.9216 116.86 12.2208 115.73 10.9716C114.599 9.72237 113.132 9.09728 111.327 9.09629C109.545 9.09629 108.083 9.69928 106.941 10.9052C105.8 12.1112 105.23 13.8342 105.23 16.0741V16.4323C105.23 18.5406 105.77 20.1873 106.851 21.3727C107.933 22.558 109.427 23.1477 111.335 23.1418C113.269 23.1418 114.769 22.5521 115.834 21.3727" fill="#00001E"></path><path d="M122.514 25.4977V23.0518L134.938 9.52083H123.264V6.87891H138.784V9.38961L126.558 22.7909H138.883V25.4977H122.514Z" fill="#00001E"></path><path d="M156.032 24.4039C154.511 25.4595 152.598 25.9868 150.294 25.9858C147.207 25.9858 144.887 25.1327 143.333 23.4265C141.779 21.7202 141.002 19.4218 141.002 16.5312V16.1391C140.997 15.2124 141.096 14.2881 141.297 13.3836C141.481 12.5537 141.766 11.7493 142.144 10.9879C142.878 9.56023 144.01 8.37651 145.404 7.58082C146.817 6.76505 148.48 6.35716 150.393 6.35716C151.337 6.34852 152.278 6.45798 153.194 6.68298C153.994 6.87988 154.755 7.21087 155.444 7.66191C156.741 8.50095 157.77 9.69473 158.409 11.1014C159.068 12.5611 159.402 14.1468 159.386 15.7484V17.2477H144.127C144.235 19.1613 144.833 20.6504 145.92 21.7148C147.007 22.7792 148.508 23.3119 150.424 23.3129C151.772 23.3129 152.902 23.025 153.815 22.449C154.727 21.8745 155.399 20.9879 155.706 19.9545H159.13C158.585 21.8671 157.553 23.3503 156.034 24.4039H156.032ZM146.104 10.4866C145.006 11.5186 144.359 12.9369 144.164 14.7414H156.228C156.097 12.9811 155.542 11.5737 154.565 10.5191C153.588 9.46446 152.208 8.93716 150.424 8.93716C148.642 8.93716 147.202 9.45366 146.104 10.4866Z" fill="#00001E"></path><path d="M166.112 25.4961H162.917V6.87883H165.917V11.1174C166.373 9.74496 167.23 8.54099 168.378 7.66168C169.519 6.79381 170.97 6.3589 172.732 6.35693C175.123 6.35693 176.932 7.07442 178.16 8.50939C179.387 9.94436 180.002 11.8354 180.003 14.1824V25.4961H176.806V14.9004C176.806 13.1608 176.421 11.7641 175.649 10.7105C174.878 9.65688 173.59 9.12957 171.785 9.12859C169.96 9.12859 168.558 9.73747 167.58 10.9552C166.602 12.173 166.111 13.7706 166.106 15.7481L166.112 25.4961Z" fill="#00001E"></path><path d="M25.8487 2.3147H0V6.62256H25.8487V2.3147Z" fill="#00001E"></path><path d="M0 25.498L12.9531 15.9771H0V11.6604H25.8487L7.67513 25.498H0Z" fill="#00001E"></path></g><defs><clipPath id="clip0"><rect width="180" height="25.9858" fill="white"></rect></clipPath></defs></svg>